<mxfile host="app.diagrams.net" modified="2021-11-11T10:52:16.907Z" agent="5.0 (Windows NT 10.0; Win64; x64) AppleWebKit/537.36 (KHTML, like Gecko) Chrome/89.0.4389.90 Safari/537.36 Edg/89.0.774.63" etag="45KDxzYjt_1a9JcGs1uC" version="15.5.9" type="github">
  <diagram id="xOr9VJNu6fuvu3wcx3Jr" name="Page-1">
    <mxGraphModel dx="652" dy="554" grid="0" gridSize="10" guides="1" tooltips="1" connect="1" arrows="1" fold="1" page="0" pageScale="1" pageWidth="827" pageHeight="1169" math="0" shadow="0">
      <root>
        <mxCell id="0" />
        <mxCell id="1" parent="0" />
        <mxCell id="tyYGvRhl7RBn9W3R3qxS-3" value="" style="edgeStyle=orthogonalEdgeStyle;rounded=0;orthogonalLoop=1;jettySize=auto;html=1;" edge="1" parent="1" source="tyYGvRhl7RBn9W3R3qxS-1" target="tyYGvRhl7RBn9W3R3qxS-2">
          <mxGeometry relative="1" as="geometry" />
        </mxCell>
        <UserObject label="&lt;div style=&quot;color: rgb(0 , 0 , 0) ; font-family: &amp;#34;helvetica&amp;#34; ; font-size: 14px ; font-style: normal ; letter-spacing: normal ; text-align: center ; text-indent: 0px ; text-transform: none ; word-spacing: 0px ; background-color: rgb(255 , 255 , 255)&quot;&gt;rest.ConfigurationMediatorController.&lt;/div&gt;&lt;div style=&quot;color: rgb(0 , 0 , 0) ; font-family: &amp;#34;helvetica&amp;#34; ; font-size: 14px ; font-style: normal ; letter-spacing: normal ; text-align: center ; text-indent: 0px ; text-transform: none ; word-spacing: 0px ; background-color: rgb(255 , 255 , 255)&quot;&gt;updateConfiguration()&lt;/div&gt;" id="tyYGvRhl7RBn9W3R3qxS-1">
          <mxCell style="whiteSpace=wrap;html=1;align=center;treeFolding=1;treeMoving=1;newEdgeStyle={&quot;edgeStyle&quot;:&quot;elbowEdgeStyle&quot;,&quot;startArrow&quot;:&quot;none&quot;,&quot;endArrow&quot;:&quot;none&quot;};fontStyle=0;fontSize=14;" vertex="1" parent="1">
            <mxGeometry x="467" y="120" width="245" height="60" as="geometry" />
          </mxCell>
        </UserObject>
        <mxCell id="tyYGvRhl7RBn9W3R3qxS-13" value="" style="edgeStyle=orthogonalEdgeStyle;rounded=0;orthogonalLoop=1;jettySize=auto;html=1;" edge="1" parent="1" source="tyYGvRhl7RBn9W3R3qxS-2" target="tyYGvRhl7RBn9W3R3qxS-12">
          <mxGeometry relative="1" as="geometry" />
        </mxCell>
        <UserObject label="&lt;div style=&quot;color: rgb(0 , 0 , 0) ; font-family: &amp;#34;helvetica&amp;#34; ; font-size: 14px ; font-style: normal ; letter-spacing: normal ; text-align: center ; text-indent: 0px ; text-transform: none ; word-spacing: 0px ; background-color: rgb(255 , 255 , 255)&quot;&gt;action.MediatorNotificationHandler.&lt;/div&gt;&lt;div style=&quot;color: rgb(0 , 0 , 0) ; font-family: &amp;#34;helvetica&amp;#34; ; font-size: 14px ; font-style: normal ; letter-spacing: normal ; text-align: center ; text-indent: 0px ; text-transform: none ; word-spacing: 0px ; background-color: rgb(255 , 255 , 255)&quot;&gt;handleMediatorRequest()&lt;/div&gt;" id="tyYGvRhl7RBn9W3R3qxS-2">
          <mxCell style="whiteSpace=wrap;html=1;align=center;treeFolding=1;treeMoving=1;newEdgeStyle={&quot;edgeStyle&quot;:&quot;elbowEdgeStyle&quot;,&quot;startArrow&quot;:&quot;none&quot;,&quot;endArrow&quot;:&quot;none&quot;};fontStyle=0;fontSize=14;" vertex="1" parent="1">
            <mxGeometry x="743" y="221" width="245" height="60" as="geometry" />
          </mxCell>
        </UserObject>
        <mxCell id="tyYGvRhl7RBn9W3R3qxS-15" value="" style="edgeStyle=orthogonalEdgeStyle;rounded=0;orthogonalLoop=1;jettySize=auto;html=1;" edge="1" parent="1" source="tyYGvRhl7RBn9W3R3qxS-12" target="tyYGvRhl7RBn9W3R3qxS-14">
          <mxGeometry relative="1" as="geometry" />
        </mxCell>
        <UserObject label="&lt;div style=&quot;color: rgb(0 , 0 , 0) ; font-family: &amp;#34;helvetica&amp;#34; ; font-size: 14px ; font-style: normal ; letter-spacing: normal ; text-align: center ; text-indent: 0px ; text-transform: none ; word-spacing: 0px ; background-color: rgb(255 , 255 , 255)&quot;&gt;updateHousekeeping()&lt;/div&gt;" id="tyYGvRhl7RBn9W3R3qxS-12">
          <mxCell style="whiteSpace=wrap;html=1;align=center;treeFolding=1;treeMoving=1;newEdgeStyle={&quot;edgeStyle&quot;:&quot;elbowEdgeStyle&quot;,&quot;startArrow&quot;:&quot;none&quot;,&quot;endArrow&quot;:&quot;none&quot;};fontStyle=0;fontSize=14;" vertex="1" parent="1">
            <mxGeometry x="1036" y="221" width="245" height="60" as="geometry" />
          </mxCell>
        </UserObject>
        <mxCell id="tyYGvRhl7RBn9W3R3qxS-17" value="" style="edgeStyle=orthogonalEdgeStyle;rounded=0;orthogonalLoop=1;jettySize=auto;html=1;" edge="1" parent="1" source="tyYGvRhl7RBn9W3R3qxS-14" target="tyYGvRhl7RBn9W3R3qxS-16">
          <mxGeometry relative="1" as="geometry" />
        </mxCell>
        <UserObject label="&lt;div style=&quot;text-align: center ; text-indent: 0px ; background-color: rgb(255 , 255 , 255)&quot;&gt;&lt;font face=&quot;helvetica&quot;&gt;&lt;span style=&quot;font-size: 14px&quot;&gt;executeHouseKeepingFromMediator()&lt;/span&gt;&lt;/font&gt;&lt;br&gt;&lt;/div&gt;" id="tyYGvRhl7RBn9W3R3qxS-14">
          <mxCell style="whiteSpace=wrap;html=1;align=center;treeFolding=1;treeMoving=1;newEdgeStyle={&quot;edgeStyle&quot;:&quot;elbowEdgeStyle&quot;,&quot;startArrow&quot;:&quot;none&quot;,&quot;endArrow&quot;:&quot;none&quot;};fontStyle=0;fontSize=14;" vertex="1" parent="1">
            <mxGeometry x="1356" y="221" width="245" height="60" as="geometry" />
          </mxCell>
        </UserObject>
        <mxCell id="tyYGvRhl7RBn9W3R3qxS-19" value="" style="edgeStyle=orthogonalEdgeStyle;rounded=0;orthogonalLoop=1;jettySize=auto;html=1;" edge="1" parent="1" source="tyYGvRhl7RBn9W3R3qxS-16" target="tyYGvRhl7RBn9W3R3qxS-18">
          <mxGeometry relative="1" as="geometry" />
        </mxCell>
        <UserObject label="&lt;div style=&quot;text-align: center ; text-indent: 0px ; background-color: rgb(255 , 255 , 255)&quot;&gt;&lt;font face=&quot;helvetica&quot;&gt;&lt;span style=&quot;font-size: 14px&quot;&gt;action.ActionService.&lt;/span&gt;&lt;/font&gt;&lt;br&gt;&lt;/div&gt;&lt;div style=&quot;text-align: center ; text-indent: 0px ; background-color: rgb(255 , 255 , 255)&quot;&gt;&lt;font face=&quot;helvetica&quot;&gt;&lt;span style=&quot;font-size: 14px&quot;&gt;executeAndWait()&lt;/span&gt;&lt;/font&gt;&lt;/div&gt;" id="tyYGvRhl7RBn9W3R3qxS-16">
          <mxCell style="whiteSpace=wrap;html=1;align=center;treeFolding=1;treeMoving=1;newEdgeStyle={&quot;edgeStyle&quot;:&quot;elbowEdgeStyle&quot;,&quot;startArrow&quot;:&quot;none&quot;,&quot;endArrow&quot;:&quot;none&quot;};fontStyle=0;fontSize=14;" vertex="1" parent="1">
            <mxGeometry x="1356" y="361" width="245" height="60" as="geometry" />
          </mxCell>
        </UserObject>
        <mxCell id="tyYGvRhl7RBn9W3R3qxS-21" value="" style="edgeStyle=orthogonalEdgeStyle;rounded=0;orthogonalLoop=1;jettySize=auto;html=1;" edge="1" parent="1" source="tyYGvRhl7RBn9W3R3qxS-18" target="tyYGvRhl7RBn9W3R3qxS-20">
          <mxGeometry relative="1" as="geometry" />
        </mxCell>
        <UserObject label="&lt;div style=&quot;text-align: center ; text-indent: 0px ; background-color: rgb(255 , 255 , 255)&quot;&gt;&lt;font face=&quot;helvetica&quot;&gt;&lt;span style=&quot;font-size: 14px&quot;&gt;action.ActionService.&lt;/span&gt;&lt;/font&gt;&lt;br&gt;&lt;/div&gt;&lt;div style=&quot;text-align: center ; text-indent: 0px ; background-color: rgb(255 , 255 , 255)&quot;&gt;&lt;font face=&quot;helvetica&quot;&gt;&lt;span style=&quot;font-size: 14px&quot;&gt;executeAndWait()&lt;/span&gt;&lt;/font&gt;&lt;/div&gt;" id="tyYGvRhl7RBn9W3R3qxS-18">
          <mxCell style="whiteSpace=wrap;html=1;align=center;treeFolding=1;treeMoving=1;newEdgeStyle={&quot;edgeStyle&quot;:&quot;elbowEdgeStyle&quot;,&quot;startArrow&quot;:&quot;none&quot;,&quot;endArrow&quot;:&quot;none&quot;};fontStyle=0;fontSize=14;" vertex="1" parent="1">
            <mxGeometry x="1356" y="495" width="245" height="60" as="geometry" />
          </mxCell>
        </UserObject>
        <UserObject label="&lt;div style=&quot;text-align: center ; text-indent: 0px ; background-color: rgb(255 , 255 , 255)&quot;&gt;&lt;font face=&quot;helvetica&quot;&gt;&lt;span style=&quot;font-size: 14px&quot;&gt;job.QueueingJobExecutor.&lt;/span&gt;&lt;/font&gt;&lt;br&gt;&lt;/div&gt;&lt;div style=&quot;text-align: center ; text-indent: 0px ; background-color: rgb(255 , 255 , 255)&quot;&gt;&lt;font face=&quot;helvetica&quot;&gt;&lt;span style=&quot;font-size: 14px&quot;&gt;executeAndWait()&lt;/span&gt;&lt;/font&gt;&lt;/div&gt;" id="tyYGvRhl7RBn9W3R3qxS-20">
          <mxCell style="whiteSpace=wrap;html=1;align=center;treeFolding=1;treeMoving=1;newEdgeStyle={&quot;edgeStyle&quot;:&quot;elbowEdgeStyle&quot;,&quot;startArrow&quot;:&quot;none&quot;,&quot;endArrow&quot;:&quot;none&quot;};fontStyle=0;fontSize=14;" vertex="1" parent="1">
            <mxGeometry x="1356" y="611" width="245" height="60" as="geometry" />
          </mxCell>
        </UserObject>
      </root>
    </mxGraphModel>
  </diagram>
</mxfile>
